<?xml version="1.0" encoding="utf-8"?>
<!-- Generator: Adobe Illustrator 24.0.0, SVG Export Plug-In . SVG Version: 6.00 Build 0)  -->
<svg version="1.1" id="Layer_1" xmlns="http://www.w3.org/2000/svg" xmlns:xlink="http://www.w3.org/1999/xlink" x="0px" y="0px"
	 viewBox="0 0 256 256" enable-background="new 0 0 256 256" xml:space="preserve">
<g>
	<g>
		<path fill="#CECECE" d="M32.035,209.177c-7.535,0-13.665-6.13-13.665-13.665V71.736c0-7.535,6.13-13.665,13.665-13.665h191.931
			c7.535,0,13.665,6.13,13.665,13.665v123.776c0,7.535-6.13,13.665-13.665,13.665H32.035z"/>
		<g>
			<path fill="#E2E2E2" d="M223.965,58.071h-14.667c7.534,0,13.665,6.13,13.665,13.665v123.776c0,7.534-6.13,13.665-13.665,13.665
				h14.667c7.535,0,13.665-6.13,13.665-13.665V71.736C237.63,64.201,231.5,58.071,223.965,58.071z"/>
		</g>
		<g>
			<path fill="#AFAFAF" d="M32.035,58.071h14.667c-7.534,0-13.665,6.13-13.665,13.665v123.776c0,7.534,6.13,13.665,13.665,13.665
				H32.035c-7.535,0-13.665-6.13-13.665-13.665V71.736C18.37,64.201,24.5,58.071,32.035,58.071z"/>
		</g>
		<path fill="#63BCE7" d="M229.221,71.76v123.728c0,2.916-2.364,5.28-5.28,5.28H32.059c-2.916,0-5.28-2.364-5.28-5.28V71.76
			c0-2.916,2.364-5.28,5.28-5.28h191.882C226.857,66.48,229.221,68.844,229.221,71.76z"/>
		<g>
			<path fill="#63E2E7" d="M223.941,66.48h-14.667c2.916,0,5.28,2.364,5.28,5.28v123.728c0,2.916-2.364,5.28-5.28,5.28h14.667
				c2.916,0,5.28-2.364,5.28-5.28V71.76C229.221,68.844,226.857,66.48,223.941,66.48z"/>
		</g>
		<g>
			<path fill="#6377E7" d="M32.059,66.48h14.667c-2.916,0-5.28,2.364-5.28,5.28v123.728c0,2.916,2.364,5.28,5.28,5.28H32.059
				c-2.916,0-5.28-2.364-5.28-5.28V71.76C26.779,68.844,29.143,66.48,32.059,66.48z"/>
		</g>
		<path fill="#CECECE" d="M128,209.177H8.667l3.053,7.024c2.751,6.329,8.995,10.423,15.896,10.423H128h100.385
			c6.901,0,13.145-4.094,15.896-10.423l3.053-7.024H128z"/>
		<g>
			<path fill="#E2E2E2" d="M232.667,209.177l-3.053,7.024c-2.751,6.329-8.995,10.423-15.896,10.423h14.667
				c6.901,0,13.145-4.094,15.896-10.423l3.053-7.024H232.667z"/>
		</g>
		<g>
			<path fill="#AFAFAF" d="M23.333,209.177l3.053,7.024c2.751,6.329,8.995,10.423,15.896,10.423H27.615
				c-6.901,0-13.145-4.094-15.896-10.423l-3.053-7.024H23.333z"/>
		</g>
		<path fill="#707070" d="M82.442,209.177l4.22,5.388c1.649,2.106,4.175,3.336,6.85,3.336h68.975c2.675,0,5.201-1.23,6.85-3.336
			l4.221-5.388H82.442z"/>
	</g>
	<g>
		<path fill="#F8AF23" d="M71.395,145.43V32.737c0-7.917,6.418-14.335,14.335-14.335h98.875V145.43H71.395z"/>
		<path fill="#9E9E9E" d="M184.605,159.762H83.932c-6.924,0-12.537-5.613-12.537-12.537v-3.592c0-6.924,5.613-12.537,12.537-12.537
			h100.673V159.762z"/>
		<polygon fill="#F46275" points="104.191,172.245 94.364,163.962 84.536,172.245 84.536,145.43 104.191,145.43 		"/>
	</g>
	<path fill="#F46275" d="M128,100.639c10.356,0,19.671-4.449,26.144-11.537c-4.962-9.364-14.806-15.745-26.144-15.745
		c-11.338,0-21.182,6.381-26.144,15.745C108.329,96.19,117.644,100.639,128,100.639z"/>
	
		<ellipse transform="matrix(0.9239 -0.3827 0.3827 0.9239 -13.35 53.5771)" fill="#9E9E9E" cx="128" cy="60.346" rx="13.011" ry="13.011"/>
	<g>
		<path fill="#3F3679" d="M245.656,216.799l3.053-7.023c0.201-0.464,0.155-0.998-0.122-1.421c-0.276-0.422-0.748-0.677-1.254-0.677
			h-14.351c3.722-2.766,6.148-7.182,6.148-12.165V71.736c0-8.362-6.803-15.165-15.164-15.165h-37.86V18.403
			c0-0.829-0.672-1.5-1.5-1.5H85.729c-0.387,0-0.766,0.031-1.146,0.058c-0.016-0.001-0.031-0.005-0.048-0.005
			c-0.05,0-0.096,0.01-0.145,0.015c-8.106,0.683-14.496,7.487-14.496,15.767v23.834h-37.86c-8.362,0-15.165,6.803-15.165,15.165
			v123.777c0,4.983,2.427,9.399,6.149,12.165H8.667c-0.505,0-0.977,0.255-1.254,0.678c-0.277,0.422-0.323,0.957-0.121,1.42
			l3.053,7.023c1.517,3.491,4.013,6.351,7.081,8.326H9.32c-0.829,0-1.5,0.671-1.5,1.5s0.671,1.5,1.5,1.5h237.36
			c0.828,0,1.5-0.671,1.5-1.5s-0.672-1.5-1.5-1.5h-8.105C241.643,223.15,244.139,220.29,245.656,216.799z M183.105,143.93h-69.611
			c-0.829,0-1.5,0.671-1.5,1.5s0.671,1.5,1.5,1.5h69.611v11.333h-77.414V145.43c0-0.829-0.671-1.5-1.5-1.5H84.536
			c-0.829,0-1.5,0.671-1.5,1.5v12.787c-5.667-0.458-10.141-5.208-10.141-10.991v-1.796v-1.796c0-6.085,4.951-11.037,11.037-11.037
			h99.174V143.93z M102.691,146.93v22.089l-7.361-6.204c-0.279-0.235-0.623-0.353-0.967-0.353s-0.688,0.118-0.967,0.353
			l-7.361,6.204V146.93H102.691z M69.895,143.634v1.796v1.796c0,7.438,5.819,13.526,13.141,13.991v11.028
			c0,0.583,0.338,1.114,0.868,1.36c0.528,0.245,1.153,0.162,1.599-0.213l8.861-7.468l8.861,7.468
			c0.276,0.232,0.62,0.353,0.967,0.353c0.214,0,0.43-0.046,0.632-0.14c0.529-0.246,0.868-0.777,0.868-1.36v-10.983h78.914
			c0.828,0,1.5-0.671,1.5-1.5V145.43v-14.333V67.98h37.836c2.084,0,3.779,1.696,3.779,3.78v123.728c0,2.084-1.695,3.78-3.779,3.78
			H32.059c-2.084,0-3.78-1.696-3.78-3.78V71.76c0-2.084,1.696-3.78,3.78-3.78h37.836V143.634z M83.036,20.192v94.087
			c0,0.829,0.671,1.5,1.5,1.5s1.5-0.671,1.5-1.5V19.903h97.069v109.694H83.932c-4.479,0-8.465,2.116-11.037,5.393V32.737
			C72.895,26.584,77.249,21.434,83.036,20.192z M19.87,195.513V71.736c0-6.708,5.457-12.165,12.165-12.165h37.86v5.409H32.059
			c-3.739,0-6.78,3.042-6.78,6.78v123.728c0,3.738,3.042,6.78,6.78,6.78h191.882c3.738,0,6.779-3.042,6.779-6.78V71.76
			c0-3.739-3.041-6.78-6.779-6.78h-37.836v-5.409h37.86c6.707,0,12.164,5.457,12.164,12.165v123.777
			c0,6.708-5.457,12.165-12.164,12.165h-50.408H82.442H32.035C25.327,207.677,19.87,202.22,19.87,195.513z M170.478,210.677
			l-2.32,2.963c-1.374,1.754-3.441,2.761-5.67,2.761H93.513c-2.229,0-4.295-1.006-5.669-2.761l-2.321-2.963H170.478z
			 M228.385,225.124H27.615c-4.787,0-9.22-2.156-12.179-5.723h29.14c0.829,0,1.5-0.671,1.5-1.5s-0.671-1.5-1.5-1.5H13.478
			c-0.132-0.263-0.264-0.526-0.383-0.798l-2.141-4.925h21.081h49.677l3.77,4.813c1.946,2.486,4.874,3.911,8.031,3.911h68.975
			c3.157,0,6.085-1.425,8.031-3.911l3.769-4.813h49.678h21.08l-2.142,4.926c-0.118,0.272-0.25,0.535-0.382,0.798h-31.098
			c-0.828,0-1.5,0.671-1.5,1.5s0.672,1.5,1.5,1.5h29.14C237.605,222.968,233.172,225.124,228.385,225.124z"/>
		<path fill="#3F3679" d="M65.22,216.401H54.845c-0.829,0-1.5,0.671-1.5,1.5s0.671,1.5,1.5,1.5H65.22c0.829,0,1.5-0.671,1.5-1.5
			S66.048,216.401,65.22,216.401z"/>
		<path fill="#3F3679" d="M201.155,216.401H190.78c-0.828,0-1.5,0.671-1.5,1.5s0.672,1.5,1.5,1.5h10.375c0.828,0,1.5-0.671,1.5-1.5
			S201.983,216.401,201.155,216.401z"/>
		<path fill="#3F3679" d="M27.323,236.097H9.32c-0.829,0-1.5,0.671-1.5,1.5s0.671,1.5,1.5,1.5h18.003c0.829,0,1.5-0.671,1.5-1.5
			S28.152,236.097,27.323,236.097z"/>
		<path fill="#3F3679" d="M246.68,236.097h-18.003c-0.828,0-1.5,0.671-1.5,1.5s0.672,1.5,1.5,1.5h18.003c0.828,0,1.5-0.671,1.5-1.5
			S247.508,236.097,246.68,236.097z"/>
		<path fill="#3F3679" d="M218.479,236.097H37.521c-0.829,0-1.5,0.671-1.5,1.5s0.671,1.5,1.5,1.5h180.959c0.828,0,1.5-0.671,1.5-1.5
			S219.308,236.097,218.479,236.097z"/>
		<path fill="#3F3679" d="M128,102.139c10.34,0,20.272-4.383,27.251-12.026c0.428-0.468,0.515-1.154,0.218-1.713
			c-4.212-7.949-11.537-13.536-20.019-15.624c4.222-2.54,7.061-7.153,7.061-12.429c0-8.001-6.51-14.51-14.511-14.51
			c-8.001,0-14.511,6.509-14.511,14.51c0,5.276,2.839,9.889,7.061,12.429c-8.483,2.088-15.807,7.675-20.019,15.624
			c-0.297,0.56-0.21,1.246,0.217,1.713C107.726,97.755,117.659,102.139,128,102.139z M116.489,60.346
			c0-6.347,5.164-11.51,11.511-11.51c6.347,0,11.511,5.164,11.511,11.51c0,6.347-5.164,11.511-11.511,11.511
			C121.653,71.856,116.489,66.693,116.489,60.346z M128,74.856c10.066,0,19.281,5.342,24.301,14.013
			c-6.363,6.539-15.159,10.269-24.301,10.269c-9.143,0-17.938-3.73-24.301-10.269C108.719,80.198,117.934,74.856,128,74.856z"/>
	</g>
</g>
</svg>
